<svg width="73" height="61" viewBox="0 0 73 61" fill="none" xmlns="http://www.w3.org/2000/svg">
<path d="M37.7674 5.39551L65.8924 21.0205C67.3963 21.8604 67.9432 23.7646 67.1033 25.2686C66.2635 26.7725 64.3592 27.3193 62.8553 26.4795L36.2537 11.7041L9.64238 26.4893C8.13848 27.3291 6.23418 26.7822 5.39434 25.2783C4.55449 23.7744 5.10137 21.8701 6.60528 21.0303L34.74 5.39551C35.6873 4.86816 36.8299 4.86816 37.7772 5.39551H37.7674ZM36.2537 28.4424C34.0955 28.4424 32.3475 26.6943 32.3475 24.5361C32.3475 22.3779 34.0955 20.6299 36.2537 20.6299C38.4119 20.6299 40.16 22.3779 40.16 24.5361C40.16 26.6943 38.4119 28.4424 36.2537 28.4424ZM19.0662 37.8174C16.908 37.8174 15.16 36.0693 15.16 33.9111C15.16 31.7529 16.908 30.0049 19.0662 30.0049C21.2244 30.0049 22.9725 31.7529 22.9725 33.9111C22.9725 36.0693 21.2244 37.8174 19.0662 37.8174ZM57.3475 33.9111C57.3475 36.0693 55.5994 37.8174 53.4412 37.8174C51.283 37.8174 49.535 36.0693 49.535 33.9111C49.535 31.7529 51.283 30.0049 53.4412 30.0049C55.5994 30.0049 57.3475 31.7529 57.3475 33.9111ZM27.1619 52.9932L24.535 48.1201V51.8799C24.535 53.6084 23.1385 55.0049 21.41 55.0049H16.7225C14.9939 55.0049 13.5975 53.6084 13.5975 51.8799V48.1201L10.9705 52.9932C10.3553 54.1357 8.93926 54.5557 7.79668 53.9502C6.6541 53.3447 6.23418 51.9189 6.83965 50.7764L10.5408 43.9111C12.035 41.1279 14.9451 39.3896 18.1092 39.3896H20.0135C21.6053 39.3896 23.1287 39.8291 24.4471 40.6201L27.7283 34.5361C29.2225 31.7529 32.1326 30.0146 35.2967 30.0146H37.201C40.365 30.0146 43.2654 31.7529 44.7693 34.5361L48.0506 40.6201C49.3689 39.8291 50.8924 39.3896 52.4842 39.3896H54.3885C57.5525 39.3896 60.4529 41.1279 61.9568 43.9111L65.658 50.7764C66.2732 51.9189 65.8436 53.335 64.701 53.9502C63.5584 54.5654 62.1424 54.1357 61.5271 52.9932L58.91 48.1201V51.8799C58.91 53.6084 57.5135 55.0049 55.785 55.0049H51.0975C49.3689 55.0049 47.9725 53.6084 47.9725 51.8799V48.1201L45.3455 52.9932C44.7303 54.1357 43.3143 54.5557 42.1717 53.9502C41.0291 53.3447 40.6092 51.9189 41.2146 50.7764L44.7596 44.1846C44.5936 44.0186 44.4471 43.833 44.3396 43.6182L41.7225 38.7451V44.0674C41.7225 45.7959 40.326 47.1924 38.5975 47.1924H33.91C32.1814 47.1924 30.785 45.7959 30.785 44.0674V38.7451L28.158 43.6182C28.0408 43.833 27.9041 44.0186 27.7381 44.1846L31.283 50.7764C31.8982 51.9189 31.4686 53.335 30.326 53.9502C29.1834 54.5654 27.7674 54.1357 27.1522 52.9932H27.1619Z" fill="#699BF7"/>
</svg>
