<svg width="44" height="56" viewBox="0 0 44 56" fill="none" xmlns="http://www.w3.org/2000/svg">
<path d="M39.8164 13.2539L30.2559 3.68359C29.8164 3.24414 29.2207 3 28.5957 3H28V15.5H40.5V14.9043C40.5 14.2891 40.2559 13.6934 39.8164 13.2539ZM24.875 16.2812V3H5.34375C4.04492 3 3 4.04492 3 5.34375V50.6562C3 51.9551 4.04492 53 5.34375 53H38.1562C39.4551 53 40.5 51.9551 40.5 50.6562V18.625H27.2188C25.9297 18.625 24.875 17.5703 24.875 16.2812ZM9.25 10.0312C9.25 9.59961 9.59961 9.25 10.0312 9.25H17.8438C18.2754 9.25 18.625 9.59961 18.625 10.0312V11.5938C18.625 12.0254 18.2754 12.375 17.8438 12.375H10.0312C9.59961 12.375 9.25 12.0254 9.25 11.5938V10.0312ZM9.25 17.8438V16.2812C9.25 15.8496 9.59961 15.5 10.0312 15.5H17.8438C18.2754 15.5 18.625 15.8496 18.625 16.2812V17.8438C18.625 18.2754 18.2754 18.625 17.8438 18.625H10.0312C9.59961 18.625 9.25 18.2754 9.25 17.8438ZM23.3125 43.6133V45.9688C23.3125 46.4004 22.9629 46.75 22.5312 46.75H20.9688C20.5371 46.75 20.1875 46.4004 20.1875 45.9688V43.5967C19.085 43.54 18.0127 43.1553 17.124 42.4883C16.7432 42.2021 16.7236 41.6318 17.0684 41.3027L18.2158 40.208C18.4863 39.9502 18.8887 39.9385 19.2051 40.1367C19.583 40.373 20.0117 40.5 20.457 40.5H23.2021C23.8369 40.5 24.3545 39.9219 24.3545 39.2119C24.3545 38.6309 24.002 38.1191 23.498 37.9687L19.1035 36.6504C17.2881 36.1055 16.0195 34.3633 16.0195 32.4131C16.0195 30.0186 17.8799 28.0732 20.1865 28.0117V25.6562C20.1865 25.2246 20.5361 24.875 20.9678 24.875H22.5303C22.9619 24.875 23.3115 25.2246 23.3115 25.6562V28.0283C24.4141 28.085 25.4863 28.4688 26.375 29.1367C26.7559 29.4229 26.7754 29.9932 26.4307 30.3223L25.2832 31.417C25.0127 31.6748 24.6104 31.6865 24.2939 31.4883C23.916 31.251 23.4873 31.125 23.042 31.125H20.2969C19.6621 31.125 19.1445 31.7031 19.1445 32.4131C19.1445 32.9941 19.4971 33.5059 20.001 33.6563L24.3955 34.9746C26.2109 35.5195 27.4795 37.2617 27.4795 39.2119C27.4795 41.6074 25.6191 43.5518 23.3125 43.6133Z" fill="#699BF7"/>
</svg>
