<svg width="50" height="50" viewBox="0 0 50 50" fill="none" xmlns="http://www.w3.org/2000/svg">
<path d="M25.1953 2.1377C25.1465 2.1377 25.0781 2.1377 25.0195 2.14941C24.5703 2.23242 24.0332 2.64746 23.6816 3.5957C23.3105 4.54297 23.2324 5.89356 23.5547 7.33984C23.8867 8.76856 24.5703 10 25.332 10.752C26.0742 11.5039 26.748 11.709 27.1973 11.6309C27.666 11.5625 28.1836 11.1328 28.5352 10.1953C28.9063 9.25391 29.0039 7.88477 28.6719 6.4502C28.3301 5.00488 27.6562 3.78516 26.8945 3.03809C26.25 2.37402 25.6543 2.1377 25.1953 2.1377ZM36.4648 14.7852C35.3906 14.8145 34.0332 15.0977 32.7148 15.6543C31.1914 16.3184 30.0195 17.207 29.375 18.0469C28.7305 18.8574 28.6719 19.4727 28.877 19.834C29.0918 20.1953 29.6875 20.5371 30.8301 20.5859C31.9727 20.6543 33.5156 20.3711 35.0293 19.7266C36.543 19.0723 37.7344 18.1738 38.3789 17.3535C39.0234 16.543 39.0723 15.9082 38.8672 15.5469C38.6621 15.1758 38.0566 14.8535 36.9141 14.8145C36.7578 14.7852 36.6211 14.7852 36.4648 14.7852ZM23.1543 23.8574C22.5098 23.8672 21.9238 23.9453 21.3965 24.082C20.2441 24.375 19.5801 24.9023 19.3652 25.5371C19.1211 26.1719 19.3652 26.9336 20.127 27.7539C20.9277 28.5547 22.2461 29.3262 23.8867 29.7559C25.5176 30.1855 27.0898 30.1758 28.2617 29.8633C29.4434 29.5605 30.1074 29.0234 30.3223 28.3984C30.5469 27.7637 30.3223 27.0117 29.5312 26.1816C28.7598 25.3809 27.4414 24.6094 25.8008 24.1895C24.873 23.9453 23.9648 23.8477 23.1543 23.8574ZM38.8477 29.5313L32.8125 32.3926C33.2227 32.4121 34.248 32.4414 34.248 32.4414L34.8926 33.291L40.2344 30.5078L38.8477 29.5313ZM33.5254 29.541L27.9199 32.1973C28.457 32.2266 29.7266 32.2461 30.2344 32.2754L35.0977 29.9707L33.5254 29.541ZM42.5684 30.5957L35.6836 34.248L37.0996 36.0742L44.375 31.7187L42.5684 30.5957ZM15.3418 31.4844C15.0461 31.4838 14.7513 31.5166 14.4629 31.582C7.48047 33.1934 3.35937 33.3301 2.13867 33.3301H1.75781V43.8281C1.75781 43.8281 2.89063 43.6621 4.77539 43.6523C8.41797 43.6523 14.834 44.2773 21.084 47.9297C21.416 48.1348 22.1289 48.2129 23.0176 48.2129C25.3906 48.2129 28.9941 47.6465 29.8242 47.334C38.1836 44.1992 48.2422 35.5957 48.2422 35.5957L45.0684 32.8223C45.0684 32.8223 37.2754 37.793 36.2891 38.2715C27.3926 42.6367 20.1855 39.9121 20.1855 39.9121C20.1855 39.9121 31.8945 40.2051 35.6543 37.2461L33.4473 33.9258C33.4473 33.9258 25.3613 33.7012 22.4805 33.3203C20.9766 33.125 17.7246 31.4844 15.3418 31.4844Z" fill="#F35F0C"/>
</svg>
