<svg width="50" height="50" viewBox="0 0 50 50" fill="none" xmlns="http://www.w3.org/2000/svg">
<path d="M8.57032 42.0047C9.32194 42.0047 9.93126 41.5892 9.93126 41.0766C9.93126 40.564 9.32194 40.1484 8.57032 40.1484C7.81869 40.1484 7.20938 40.564 7.20938 41.0766C7.20938 41.5892 7.81869 42.0047 8.57032 42.0047Z" fill="#699BF7"/>
<path d="M48.4375 36.4602L47.9266 36.1602C47.8875 36.1375 43.9836 33.8211 43.0133 31.0102L42.7969 30.3875L42.3969 30.9102C42.3844 30.9266 41.8297 31.6125 40.2773 32.4172C39.1281 25.8758 35.2188 18.0664 30.0813 14.7367C31.55 14.8555 33.0234 14.7336 34.4453 14.2164C35.3016 13.9055 34.932 12.5102 34.068 12.8258C32.9023 13.25 31.7344 13.3656 30.5687 13.3062C33.4305 10.6836 35.6773 6.66406 35.6773 3.725C35.6773 3.01875 35.6773 1.70391 34.6305 1.70391C34.2102 1.70391 33.8703 1.96641 33.4008 2.32891C32.6805 2.88437 31.593 3.725 29.9953 3.725C29.3867 3.725 28.2727 3.08281 27.3773 2.56719C26.2953 1.94453 25.6039 1.5625 25.0227 1.5625C24.0602 1.5625 22.6453 2.34062 21.3969 3.02734C20.8891 3.30625 20.1945 3.68906 20.0508 3.72578C18.2414 3.72578 17.1906 2.89141 16.4937 2.33906C16.0875 2.01562 15.793 1.78125 15.4 1.78125C14.3703 1.78125 14.3703 3.01641 14.3703 4.44687C14.3703 7.20781 16.4734 10.8523 19.2273 13.3016C17.4922 13.4258 15.7812 13.95 14.5789 15.1148C13.9148 15.757 14.9211 16.7758 15.5828 16.1352C16.582 15.1664 17.8922 14.7516 19.2937 14.6711C19.3336 14.8141 19.382 14.9547 19.4414 15.093C13.5695 19.3125 9.39844 29.332 9.39844 36.0961C9.39844 36.7633 9.45 37.3672 9.52969 37.9359C8.01562 37.2633 7.46328 36.6734 7.45234 36.6602L7.04922 36.1953L6.85078 36.7813C5.97344 39.3625 2.15937 41.6016 2.12109 41.6242L1.5625 41.9484L2.13047 42.2555C2.32969 42.3633 2.52734 42.4578 2.72656 42.5602L2.36719 42.8094L2.55703 45.1844L17.4422 48.4375L23.0859 44.8273C23.6555 44.8305 24.232 44.832 24.8187 44.832L31.4156 48.4375L46.3289 43.75V41.243L45.9344 41.0062C46.1313 40.8812 46.3281 40.7539 46.5242 40.6227L47.0469 40.2734L46.932 40.2172L47.5969 40.0352L47.7094 37.4289L47.325 37.1563C47.5297 37.0336 47.7336 36.9086 47.9383 36.7789L48.4375 36.4602ZM15.7914 4.44687C15.7914 4.1 15.7961 3.82969 15.8031 3.61953C15.9227 3.71328 16.0617 3.81563 16.2102 3.92109C16.6656 5.01172 17.5273 6.58203 18.9883 7.57109C20.7633 8.77422 20.5273 7.39141 21.4742 6.12891C22.4211 4.86719 23.0617 4.20625 24.6477 7.45156C25.3391 8.86641 26.4914 4.9125 27.5867 4.33516C27.8766 4.49297 28.1656 4.63984 28.4492 4.76484C30.4133 7.95859 31.3234 6.9625 33.068 4.30781C33.5477 4.02656 33.9414 3.725 34.2547 3.48359C34.2563 3.55625 34.2578 3.63672 34.2578 3.72656C34.2578 6.23438 32.2086 9.83125 29.6992 12.1773C29.5807 11.8762 29.411 11.5979 29.1977 11.3547C28.1844 10.207 26.6008 11.4797 25.85 12.3148C24.518 11.8867 22.3477 10.7078 20.9336 11.3828C20.5814 11.5462 20.258 11.7654 19.9758 12.032C17.6633 9.92422 15.7914 6.88125 15.7914 4.44687ZM28.4508 13.0203C28.1005 12.946 27.7522 12.8627 27.4063 12.7703C27.8422 12.3945 28.2422 12.2633 28.4102 12.8219C28.4281 12.8828 28.4391 12.9523 28.4508 13.0203ZM22.5133 13.5055C22.2547 13.4563 21.9891 13.4117 21.7156 13.3766C21.5083 13.2466 21.3053 13.1098 21.107 12.9664C21.8211 12.4875 23.0523 12.7422 24.2289 13.1414C23.6484 13.2 23.0758 13.3266 22.5133 13.5055ZM22.868 15.568C22.4305 15.6773 21.9539 15.6336 21.5422 15.4695C21.7094 15.3813 21.8781 15.3047 22.0469 15.2273C22.3203 15.3594 22.5937 15.4695 22.868 15.568ZM8.41719 44.0461C6.55382 43.5065 4.74574 42.7915 3.01719 41.9109C4.07734 41.2141 6.38672 39.5289 7.32578 37.5039C7.96953 38.0094 9.45547 38.9312 12.3492 39.6391C12.3 39.7187 12.2398 39.8039 12.182 39.8875C9.71172 39.2406 8.30703 38.4227 8.28438 38.4086L7.94375 38.2055L7.78047 38.5703C7.56562 39.0484 7.06172 39.1203 6.78125 39.1203C6.70313 39.1203 6.65078 39.1148 6.64375 39.1141L6.36484 39.0734L6.26328 39.3406C6.05547 39.8859 5.20234 40.5984 4.88984 40.8273L4.36797 41.2102L4.96484 41.4547C5.18672 41.5453 5.24687 41.6289 5.25 41.6508C5.25781 41.7047 5.16328 41.8469 5.0625 41.9289L4.60781 42.2953L5.13672 42.5398C6.22031 43.0398 7.44766 43.4539 8.675 43.7953C8.57734 43.8914 8.49297 43.9734 8.41719 44.0461ZM14.7172 41.1352C15.8094 41.2883 17.0195 41.3852 18.3414 41.3852H18.3422C18.6172 41.3852 18.8961 41.3805 19.1805 41.3719C19.1994 41.4308 19.2265 41.4868 19.2609 41.5383C19.3305 41.6437 19.4242 41.7312 19.543 41.7992L17.5492 43.5031C17.5112 43.5015 17.4732 43.5007 17.4352 43.5008C16.5469 43.5008 15.8844 43.8273 15.5664 44.4086C14.3617 44.2549 13.1626 44.0603 11.9711 43.825C12.9289 42.9727 13.8453 42.0751 14.7172 41.1352ZM5.85078 42.0703C5.92891 41.9227 5.97969 41.7437 5.95234 41.5484C5.92637 41.3722 5.8419 41.2099 5.7125 41.0875C6.06328 40.7867 6.54688 40.3227 6.8125 39.8422C7.41641 39.8336 7.91484 39.6047 8.22891 39.2C8.75781 39.4766 9.94922 40.0352 11.7094 40.5195C10.9898 41.4219 10.0203 42.4453 9.26641 43.2063C8.09141 42.8953 6.90781 42.5203 5.85078 42.0703ZM16.9844 45.3586L16.8242 45.3594C16.1516 45.3594 13.9227 45.3047 10.9781 44.6914C11.0813 44.6039 11.1883 44.5141 11.2875 44.4281C13.6766 44.9273 15.6031 45.1414 15.7477 45.1578L16.0336 45.1883L16.1219 44.9109C16.3148 44.3125 17.0266 44.2242 17.4344 44.2242C17.5461 44.2242 17.6203 44.2313 17.6289 44.232L17.7805 44.2484L21.2437 41.2891L20.318 41.2586C20.0086 41.2477 19.8781 41.1781 19.8461 41.1305L20.0422 40.6172L19.5 40.6398C19.1047 40.657 18.7187 40.6656 18.3414 40.6656C17.2508 40.6656 16.2383 40.5937 15.3031 40.4805L15.5203 40.2242C17.4078 40.4766 19.668 40.632 22.3969 40.6125C21.7453 41.5266 20.1203 43.4695 16.9844 45.3586ZM24.8156 41.9641V43.3898C24.3711 43.3898 23.9383 43.3883 23.5148 43.3852L23.3875 41.7805L22.3297 41.8664C23.0422 41.0242 23.3461 40.4625 23.3734 40.4117L23.6602 39.8695L23.0547 39.8805C17.2594 39.9867 13.4797 39.2961 11.0937 38.5289C10.9195 37.8242 10.8187 37.0273 10.8187 36.0969C10.8187 29.7508 14.8742 20.1586 20.2586 16.2711C21.2125 17.1937 22.6594 17.5977 24.0344 16.7C24.3359 16.5031 24.5984 16.2453 24.8445 15.9711C24.9031 15.9727 24.9633 15.9859 25.0227 15.9859C25.2195 15.9859 25.4195 15.9695 25.6187 15.9445C25.8711 16.0453 26.118 16.1469 26.3469 16.2477C27.443 16.7305 28.3789 16.4305 29.018 15.7648C33.95 18.7492 37.9016 26.6437 38.9414 33.025C36.6867 33.9266 33.1102 34.8063 27.6211 34.9609C28.7039 34.3422 29.5164 33.3016 29.2242 31.9344C28.9172 30.4891 27.7094 30.0828 26.4586 30.0164C26.4555 29.3375 26.4555 28.6602 26.4602 27.9813C26.8437 28.1508 27.2117 28.3461 27.5461 28.5547C28.1367 28.9258 28.6711 27.9641 28.0844 27.593C27.5756 27.2731 27.0327 27.0114 26.4656 26.8125C26.4734 26.0266 26.4773 25.2422 26.4773 24.4578C26.4781 23.7391 25.4102 23.7391 25.4102 24.4578C25.4102 25.1477 25.4055 25.8367 25.3992 26.525C24.8308 26.4259 24.2504 26.4162 23.6789 26.4961C23.586 25.979 23.4734 25.4656 23.3414 24.957C23.1648 24.2648 22.1336 24.5578 22.3125 25.2523C22.4437 25.7516 22.5508 26.2484 22.6391 26.7523C22.5938 26.7695 22.5445 26.7781 22.5 26.7984C21.0531 27.3711 20.1703 28.8312 21.2289 30.193C21.7219 30.8273 22.3664 31.0836 23.0719 31.1687C23.1102 32.1086 23.1344 33.0492 23.1617 33.9883C22.6891 33.6813 22.2586 33.2875 21.8688 32.8711C21.3859 32.3617 20.632 33.1484 21.1141 33.657C21.7695 34.3547 22.4578 34.882 23.2039 35.2195C23.2375 36.0219 23.2852 36.8266 23.3633 37.625C23.432 38.3336 24.5008 38.3375 24.4312 37.625C24.3654 36.9344 24.3167 36.2422 24.2852 35.5492C24.6914 35.6195 25.118 35.6375 25.5711 35.5945C25.6219 36.3336 25.6812 37.0727 25.7656 37.8117C25.8141 38.2352 26.2188 38.4016 26.5172 38.3156L26.4508 39.85C25.9805 39.8922 25.5008 39.9312 25.0008 39.9641L24.4055 40.0031L24.7227 40.5156C24.7547 40.5672 25.1148 41.1367 25.9187 41.9656H24.8156V41.9641ZM44.2594 36.8219C43.2773 37.2836 42.0352 37.707 40.7695 38.0766C39.9914 37.2727 38.9961 36.2 38.2531 35.2484C39.9086 34.7469 40.8352 34.2297 41.2531 33.9508C41.5836 34.2422 42.0211 34.3937 42.5391 34.393C42.7109 34.393 42.8633 34.3766 42.9805 34.3578C43.3555 34.8438 43.9602 35.4047 44.3383 35.7398C44.1594 35.9234 44.0727 36.1266 44.0797 36.3461C44.0859 36.5336 44.1609 36.693 44.2594 36.8219ZM38.6695 39.3891C38.8289 39.5297 38.9937 39.6734 39.1617 39.8187C35.9945 40.6586 33.6375 40.75 33.1242 40.7586C29.8445 38.7578 28.1445 36.6406 27.4891 35.6875C30.2336 35.6188 32.5023 35.3703 34.3945 35.0281C34.4715 35.1226 34.5493 35.2164 34.6281 35.3094C33.1073 35.5462 31.5744 35.6983 30.0367 35.7648L29.4062 35.7914L29.7531 36.3219C29.7523 36.3227 29.682 36.4539 29.2164 36.5445L28.4594 36.6922L32.1813 39.7055L32.3547 39.6586C32.3586 39.6578 32.6867 39.5695 33.0836 39.5695C33.6563 39.5695 34.0477 39.7437 34.2445 40.0844L34.3695 40.3L34.6125 40.257C35.9733 40.0089 37.3263 39.7195 38.6695 39.3891ZM27.6563 37.093L26.7672 37.0445C26.7258 36.6008 26.6844 36.157 26.6531 35.7133C26.8094 35.9727 27.1297 36.4602 27.6563 37.093ZM26.5563 34.2328C26.505 33.1812 26.474 32.1286 26.4633 31.0758C26.5914 31.0805 26.718 31.0922 26.8383 31.1094C28.2195 31.3187 28.5805 32.8547 27.5023 33.7187C27.2211 33.9414 26.8969 34.1047 26.5563 34.2328ZM34.7117 39.5078C34.3617 39.0758 33.8047 38.8492 33.0844 38.8492C32.7836 38.8492 32.5187 38.8898 32.3516 38.9227L30.0117 37.0266C30.2063 36.9148 30.3375 36.7734 30.4094 36.6C30.4271 36.5568 30.4407 36.5121 30.45 36.4664C32.3047 36.3648 33.8672 36.1797 35.1883 35.9531C35.8289 36.668 36.7703 37.6539 38.0188 38.8C36.4852 39.1648 35.2062 39.4148 34.7117 39.5078ZM25.3945 31.1039C25.4094 32.2359 25.4375 33.3711 25.4977 34.5023C25.3969 34.518 25.2977 34.5375 25.1984 34.5477C24.8625 34.5859 24.5437 34.5578 24.2406 34.4813C24.2023 33.3875 24.1773 32.2914 24.1359 31.1969C24.5562 31.1773 24.982 31.1359 25.3945 31.1039ZM24.082 30.1156C24.0332 29.2572 23.9524 28.4009 23.8398 27.5484C24.3577 27.4773 24.8843 27.504 25.3922 27.6273C25.3866 28.426 25.3853 29.2247 25.3883 30.0234C25.0453 30.0422 24.7195 30.075 24.4328 30.1008C24.3161 30.1099 24.1991 30.1148 24.082 30.1156ZM23.0102 29.9789C22.9437 29.9609 22.8781 29.9469 22.8102 29.9242C22.4976 29.8183 22.2145 29.6397 21.9844 29.4031C21.3172 28.7805 22.2328 28.1695 22.8102 27.8797C22.9008 28.575 22.9633 29.2766 23.0102 29.9789ZM31.6328 45.1867C28.2414 43.4539 26.4219 41.5281 25.6992 40.6359C26.2188 40.5969 26.7102 40.55 27.1969 40.5008L32.7578 44.1102L44.9531 40.7602C38.6641 44.5508 32.4508 45.1281 31.6328 45.1867ZM41.7047 39.0227C41.6047 38.9227 41.4852 38.8039 41.3437 38.6609C42.7312 38.2406 44.0734 37.7531 45.0742 37.2172L45.6828 36.8898L45.0656 36.5758C44.9273 36.5047 44.7922 36.3742 44.7898 36.325C44.7914 36.3062 44.8461 36.2062 45.0828 36.0703L45.5344 35.8109L45.1328 35.4766C45.1203 35.4664 43.868 34.4266 43.4281 33.757L43.2828 33.5383L43.0336 33.6109C43.0313 33.6109 42.8172 33.6727 42.5391 33.6727C42.1094 33.6734 41.7875 33.5328 41.5812 33.2563L41.3531 32.9539L41.0672 33.2C41.0523 33.2125 40.1672 33.9383 37.793 34.6242C37.7148 34.5116 37.6395 34.397 37.5672 34.2805C40.4461 33.4078 41.9172 32.3516 42.5547 31.7734C43.5781 33.9875 46.0148 35.7711 47.0727 36.4703C45.3733 37.4987 43.5749 38.3537 41.7047 39.0227Z" fill="#699BF7"/>
<path d="M34.6719 36.8102C33.893 36.5984 33.0141 36.743 32.7062 37.1297C32.4008 37.518 32.7867 38.007 33.5648 38.2203C34.3445 38.432 35.2227 38.2867 35.5305 37.8992C35.8359 37.5109 35.4516 37.0234 34.6719 36.8102Z" fill="#699BF7"/>
</svg>
