<svg width="50" height="50" viewBox="0 0 50 50" fill="none" xmlns="http://www.w3.org/2000/svg">
<path d="M11.4583 41.6667C12.2874 41.6669 13.0824 41.9966 13.6685 42.583C14.2545 43.1694 14.5836 43.9647 14.5833 44.7937C14.5831 45.6228 14.2534 46.4178 13.667 47.0039C13.0806 47.5899 12.2853 47.919 11.4563 47.9187C10.6272 47.9185 9.83216 47.5889 9.24611 47.0024C8.66006 46.416 8.33097 45.6207 8.33125 44.7917C8.33153 43.9626 8.66114 43.1676 9.24758 42.5815C9.83403 41.9955 10.6293 41.6664 11.4583 41.6667ZM38.5417 41.6667C39.3707 41.6669 40.1658 41.9966 40.7518 42.583C41.3379 43.1694 41.6669 43.9647 41.6667 44.7937C41.6664 45.6228 41.3368 46.4178 40.7503 47.0039C40.1639 47.5899 39.3687 47.919 38.5396 47.9187C37.7105 47.9185 36.9155 47.5889 36.3294 47.0024C35.7434 46.416 35.4143 45.6207 35.4146 44.7917C35.4149 43.9626 35.7445 43.1676 36.3309 42.5815C36.9174 41.9955 37.7126 41.6664 38.5417 41.6667ZM4.525 3.66042L12.4979 11.6354V35.4167H41.6667V39.5833H10.4167C9.86413 39.5833 9.33423 39.3638 8.94353 38.9731C8.55283 38.5824 8.33333 38.0525 8.33333 37.5V13.3604L1.575 6.60833L4.525 3.66042ZM33.3333 6.25C33.8859 6.25 34.4158 6.46949 34.8065 6.86019C35.1972 7.25089 35.4167 7.7808 35.4167 8.33333V12.5H41.6521C42.8125 12.5 43.75 13.45 43.75 14.5729V31.2604C43.7486 31.5344 43.6933 31.8053 43.587 32.0579C43.4808 32.3104 43.3258 32.5394 43.131 32.732C42.9361 32.9245 42.7052 33.0768 42.4514 33.1799C42.1976 33.2831 41.926 33.3353 41.6521 33.3333H16.6813C16.1292 33.3334 15.5993 33.1158 15.2066 32.7277C14.8138 32.3397 14.5899 31.8125 14.5833 31.2604V14.5729C14.5847 14.299 14.6401 14.028 14.7463 13.7755C14.8525 13.523 15.0075 13.2939 15.2024 13.1013C15.3972 12.9088 15.6282 12.7566 15.8819 12.6534C16.1357 12.5502 16.4073 12.4981 16.6813 12.5H22.9146L22.9167 8.33333C22.9167 7.7808 23.1362 7.25089 23.5269 6.86019C23.9176 6.46949 24.4475 6.25 25 6.25H33.3333ZM22.9167 16.6667H20.8333V29.1667H22.9167V16.6667ZM37.5 16.6667H35.4167V29.1667H37.5V16.6667ZM31.25 10.4167H27.0833V12.5H31.25V10.4167Z" fill="#699BF7"/>
</svg>
