<svg width="73" height="61" viewBox="0 0 73 61" fill="none" xmlns="http://www.w3.org/2000/svg">
<path d="M22.189 9.6875C22.189 12.2754 20.0894 14.375 17.5015 14.375C14.9136 14.375 12.814 12.2754 12.814 9.6875C12.814 7.09961 14.9136 5 17.5015 5C20.0894 5 22.189 7.09961 22.189 9.6875ZM19.064 28.6035V34.9609L24.0444 39.9414C24.7378 40.6348 25.1968 41.5234 25.353 42.4902L26.8374 51.3672C27.1206 53.0664 25.9683 54.6777 24.269 54.9609C22.5698 55.2441 20.9585 54.0918 20.6753 52.3926L19.2788 44.0039L11.5249 36.25C10.353 35.0781 9.68896 33.4863 9.68896 31.8262V23.2227C9.68896 20.0586 12.2476 17.5 15.4116 17.5C17.7651 17.5 19.9526 18.6719 21.2612 20.625L25.8901 27.5684L26.8765 28.0566V20.625C26.8765 18.8965 28.2729 17.5 30.0015 17.5H42.5015C44.23 17.5 45.6265 18.8965 45.6265 20.625V28.0664L46.6128 27.5781L51.2417 20.625C52.5405 18.6719 54.7378 17.5 57.0913 17.5C60.2554 17.5 62.814 20.0586 62.814 23.2227V31.8262C62.814 33.4863 62.1597 35.0781 60.9878 36.25L53.2339 44.0039L51.8374 52.3926C51.5542 54.0918 49.9429 55.2441 48.2436 54.9609C46.5444 54.6777 45.3921 53.0664 45.6753 51.3672L47.1597 42.4902C47.3159 41.5234 47.7749 40.6348 48.4683 39.9414L53.4487 34.9609V28.6035L51.5933 31.3867C51.144 32.0703 50.519 32.6172 49.7866 32.9785L43.9663 35.8887C43.7319 36.0156 43.4878 36.1035 43.2241 36.1621C42.9702 36.2207 42.7065 36.25 42.4526 36.2402H30.0698C29.8257 36.25 29.5815 36.2207 29.3374 36.1719C29.0542 36.1133 28.7905 36.0156 28.5464 35.8789L22.7358 32.9687C22.0034 32.6074 21.3882 32.0508 20.9292 31.377L19.0737 28.5938L19.064 28.6035ZM5.22607 50.7129L9.89404 39.043L14.6987 43.8477L11.0269 53.0273C10.3823 54.6289 8.56592 55.4102 6.96435 54.7656C5.36279 54.1211 4.58154 52.3145 5.22607 50.7129ZM55.0015 14.375C52.4136 14.375 50.314 12.2754 50.314 9.6875C50.314 7.09961 52.4136 5 55.0015 5C57.5894 5 59.689 7.09961 59.689 9.6875C59.689 12.2754 57.5894 14.375 55.0015 14.375ZM62.6089 39.043L67.2769 50.7129C67.9214 52.3145 67.1401 54.1309 65.5386 54.7754C63.937 55.4199 62.1206 54.6387 61.4761 53.0371L57.8042 43.8574L62.6089 39.0527V39.043Z" fill="#699BF7"/>
</svg>
